<svg id="Capa_1" enable-background="new 0 0 512 512" height="512" viewBox="0 0 512 512" width="512" xmlns="http://www.w3.org/2000/svg"><g><g><g><g><path d="m42.973 222.672c22.3 22.3 51.01 34.272 80.199 35.936-1.663-29.189-13.636-57.899-35.936-80.199-20.762-20.762-47.081-32.572-74.169-35.444-3.195-.339-5.877 2.343-5.539 5.539 2.873 27.087 14.683 53.406 35.445 74.168z" fill="#05e39c"/></g><g><path d="m61.918 203.727c-16.574-16.574-27.425-36.694-32.597-57.916-5.362-1.307-10.79-2.268-16.253-2.847-3.195-.339-5.877 2.343-5.539 5.539 2.872 27.088 14.683 53.407 35.444 74.169 22.3 22.3 51.01 34.272 80.199 35.936-.427-7.487-1.536-14.941-3.32-22.265-21.229-5.17-41.354-16.036-57.934-32.616z" fill="#0ed290"/></g></g><g><g><path d="m237.732 222.672c-22.3 22.3-51.01 34.272-80.199 35.936 1.663-29.189 13.636-57.899 35.936-80.199 20.762-20.762 47.081-32.572 74.169-35.444 3.195-.339 5.877 2.343 5.539 5.539-2.873 27.087-14.683 53.406-35.445 74.168z" fill="#05e39c"/></g><g><path d="m209.599 194.683c17.509-17.509 38.976-28.626 61.518-33.41.901-4.226 1.605-8.486 2.059-12.77.339-3.195-2.343-5.877-5.539-5.539-27.088 2.872-53.407 14.683-74.169 35.444-22.3 22.3-34.272 51.01-35.936 80.199 6.259-.357 12.495-1.191 18.651-2.496 4.795-22.511 15.929-43.941 33.416-61.428z" fill="#0ed290"/></g></g></g><g><g><circle cx="140.353" cy="380.185" fill="#fed402" r="73.356"/></g><g><path d="m98 380.185c0-35.193 24.788-64.584 57.854-71.7-4.999-1.076-10.181-1.656-15.502-1.656-40.514 0-73.356 32.843-73.356 73.356s32.843 73.356 73.356 73.356c5.32 0 10.503-.58 15.502-1.656-33.066-7.116-57.854-36.507-57.854-71.7z" fill="#fac600"/></g></g><g><g><path d="m278.859 453.541h-33.583v-92.513c0-2.764 2.241-5.005 5.005-5.005h23.574c2.764 0 5.005 2.241 5.005 5.005v92.513z" fill="#fd5426"/></g><g><path d="m278.859 453.541h-33.583v-92.513c0-2.764 2.241-5.005 5.005-5.005h23.574c2.764 0 5.005 2.241 5.005 5.005v92.513z" fill="#fd5426"/></g><g><path d="m266.004 356.024h-15.723c-2.764 0-5.005 2.241-5.005 5.005v92.513h15.724v-92.513c0-2.765 2.241-5.005 5.004-5.005z" fill="#ef4424"/></g><g><path d="m343.786 453.541h-33.583v-164.108c0-2.764 2.241-5.005 5.005-5.005h23.574c2.764 0 5.005 2.241 5.005 5.005v164.108z" fill="#fed402"/></g><g><path d="m331.004 284.429h-15.797c-2.764 0-5.005 2.241-5.005 5.005v164.108h15.798v-164.109c0-2.764 2.241-5.004 5.004-5.004z" fill="#fac600"/></g><g><path d="m408.713 453.541h-33.583v-194.968c0-2.764 2.241-5.005 5.005-5.005h23.574c2.764 0 5.005 2.241 5.005 5.005v194.968z" fill="#01d0fb"/></g><g><path d="m396.422 253.569h-16.287c-2.764 0-5.005 2.241-5.005 5.005v194.968h16.287v-194.969c0-2.764 2.241-5.004 5.005-5.004z" fill="#01c0fa"/></g><g><path d="m473.64 453.541h-33.583v-246.812c0-2.764 2.241-5.005 5.005-5.005h23.574c2.764 0 5.005 2.241 5.005 5.005v246.812z" fill="#05e39c"/></g><g><path d="m460.422 201.724h-15.36c-2.764 0-5.005 2.241-5.005 5.005v246.812h15.36v-246.812c0-2.764 2.241-5.005 5.005-5.005z" fill="#0ed290"/></g></g><g><path d="m420.773 88.053-172.84 172.84c-6.434 6.434-6.434 16.866 0 23.301 6.434 6.434 16.866 6.434 23.301 0l172.84-172.84c1.172-1.172 3.071-1.172 4.243 0l10.791 10.791c1.731 1.731 4.695.772 5.083-1.645l9.41-58.565c.323-2.008-1.403-3.748-3.414-3.442l-58.993 8.982c-2.431.37-3.409 3.348-1.67 5.087l11.249 11.249c1.172 1.171 1.172 3.07 0 4.242z" fill="#7ca1b1"/></g><g><g><path d="m268.826 284.193c-6.434-6.434-6.434-16.866 0-23.301l172.84-172.84c1.172-1.172 1.172-3.071 0-4.243l-18.204-18.204-12.267 1.868c-2.431.37-3.409 3.348-1.67 5.087l11.249 11.249c1.172 1.172 1.172 3.071 0 4.243l-172.84 172.84c-6.434 6.434-6.434 16.866 0 23.301 6.047 6.047 15.624 6.408 22.096 1.089-.414-.341-.817-.702-1.204-1.089z" fill="#678d98"/></g></g><g><path d="m140.352 430.855c4.143 0 7.5-3.358 7.5-7.5v-7.14h.384c12.001 0 21.765-9.764 21.765-21.765s-9.764-21.765-21.765-21.765h-15.766c-3.73 0-6.766-3.035-6.766-6.765s3.035-6.765 6.766-6.765h27.779c4.143 0 7.5-3.358 7.5-7.5s-3.357-7.5-7.5-7.5h-12.396v-7.14c0-4.142-3.357-7.5-7.5-7.5s-7.5 3.358-7.5 7.5v7.14h-.383c-12.002 0-21.766 9.764-21.766 21.765s9.764 21.765 21.766 21.765h15.767c3.73 0 6.765 3.035 6.765 6.765s-3.034 6.765-6.765 6.765h-27.779c-4.143 0-7.5 3.358-7.5 7.5s3.357 7.5 7.5 7.5h12.396v7.14c-.002 4.142 3.356 7.5 7.498 7.5z"/><path d="m504.5 446.041h-23.36v-161.168c0-4.142-3.357-7.5-7.5-7.5s-7.5 3.358-7.5 7.5v161.168h-18.584v-236.817h18.584v40.649c0 4.142 3.357 7.5 7.5 7.5s7.5-3.358 7.5-7.5v-43.145c0-6.895-5.609-12.504-12.505-12.504h-23.574c-6.896 0-12.505 5.609-12.505 12.504v239.312h-16.344v-187.467c0-6.895-5.609-12.504-12.504-12.504h-23.574c-6.896 0-12.505 5.609-12.505 12.504v187.468h-16.344v-156.608c0-6.895-5.609-12.504-12.505-12.504h-23.573c-6.896 0-12.505 5.609-12.505 12.504v156.608h-16.344v-85.013c0-6.895-5.609-12.505-12.505-12.505h-23.573c-6.896 0-12.505 5.61-12.505 12.505v85.013h-50.535c.667-.476 1.334-.952 1.989-1.45 13.687-10.408 23.878-25.183 28.698-41.605 1.167-3.975-1.109-8.142-5.084-9.309-3.976-1.167-8.143 1.11-9.309 5.084-8.171 27.838-34.152 47.28-63.182 47.28-36.313 0-65.856-29.543-65.856-65.856s29.543-65.856 65.856-65.856c31.353 0 58.519 22.29 64.593 53 .804 4.063 4.749 6.708 8.813 5.902 4.063-.804 6.706-4.75 5.902-8.813-6.971-35.241-36.552-61.447-71.808-64.734v-20.789l12.997-12.997c31.028-2.455 60.116-15.853 82.186-37.922 21.103-21.103 34.456-49.046 37.599-78.682.401-3.786-.91-7.5-3.599-10.188-2.688-2.688-6.393-4.005-10.189-3.599-29.635 3.143-57.577 16.496-78.682 37.6-22.068 22.068-35.466 51.156-37.922 82.185l-2.39 2.39v-36.02c0-4.142-3.357-7.5-7.5-7.5s-7.5 3.358-7.5 7.5v36.02l-2.389-2.389c-2.456-31.029-15.855-60.118-37.923-82.186-21.104-21.104-49.047-34.457-78.682-37.6-3.788-.404-7.5.91-10.188 3.599s-4 6.402-3.599 10.188c3.142 29.635 16.495 57.578 37.599 78.682 22.07 22.069 51.158 35.467 82.185 37.922l12.997 12.997v20.795c-41.079 3.798-73.356 38.441-73.356 80.495 0 44.584 36.272 80.856 80.856 80.856h364.148c4.143 0 7.5-3.358 7.5-7.5s-3.358-7.5-7.5-7.5zm-305.728-262.329c17.953-17.953 41.491-29.57 66.577-32.921-3.352 25.085-14.969 48.626-32.921 66.578-14.869 14.869-33.338 25.28-53.422 30.372l45.002-45.002c2.929-2.929 2.929-7.678 0-10.606-2.93-2.929-7.678-2.929-10.607 0l-45.001 45.001c5.092-20.085 15.503-38.554 30.372-53.422zm-142.076 19.026 45.002 45.002c-20.083-5.092-38.552-15.503-53.421-30.371-17.953-17.952-29.57-41.493-32.921-66.578 25.084 3.351 48.624 14.969 66.576 32.921 14.869 14.868 25.28 33.337 30.372 53.421l-45.001-45.001c-2.93-2.929-7.678-2.929-10.607 0-2.929 2.928-2.929 7.677 0 10.606zm325.934 58.331h18.583v184.972h-18.583zm-64.927 30.86h18.583v154.112h-18.583zm-64.927 71.594h18.583v82.518h-18.583z"/><path d="m412.288 85.932-169.657 169.657c-4.529 4.529-7.023 10.55-7.023 16.954s2.494 12.425 7.023 16.954c4.674 4.673 10.813 7.01 16.953 7.01s12.279-2.337 16.954-7.011l44.168-44.169c2.929-2.929 2.929-7.678 0-10.606-2.929-2.929-7.677-2.929-10.607 0l-44.167 44.168c-3.502 3.5-9.196 3.5-12.694 0-1.696-1.695-2.63-3.95-2.63-6.347s.934-4.652 2.63-6.347l172.837-172.838c1.984-1.983 3.077-4.62 3.077-7.426 0-2.805-1.093-5.442-3.076-7.424l-4.957-4.958 44.099-6.714-7.034 43.779-4.563-4.564c-4.096-4.094-10.756-4.095-14.85 0l-103.924 103.923c-2.929 2.929-2.929 7.678 0 10.606 2.929 2.929 7.677 2.929 10.607 0l100.74-100.74 7.609 7.61c2.803 2.802 6.886 3.785 10.658 2.564 3.771-1.221 6.504-4.41 7.134-8.324l9.41-58.566c.529-3.3-.56-6.687-2.913-9.059-2.354-2.372-5.729-3.489-9.035-2.986l-58.993 8.982c-3.937.599-7.154 3.322-8.396 7.105-1.241 3.784-.264 7.884 2.553 10.7z"/></g></g></svg>