<?xml version="1.0" encoding="iso-8859-1"?>
<!-- Generator: Adobe Illustrator 19.0.0, SVG Export Plug-In . SVG Version: 6.00 Build 0)  -->
<svg version="1.1" id="Layer_1" xmlns="http://www.w3.org/2000/svg" xmlns:xlink="http://www.w3.org/1999/xlink" x="0px" y="0px"
	 viewBox="0 0 512 512" style="enable-background:new 0 0 512 512;" xml:space="preserve">
<path style="fill:#CCCCCC;" d="M447.762,462.141c0,9.381-7.576,16.984-16.919,16.984H81.157c-9.343,0-16.919-7.602-16.919-16.984
	V156.455c0-9.378,7.576-16.982,16.919-16.982h349.686c9.343,0,16.919,7.604,16.919,16.982V462.141z"/>
<path style="opacity:0.1;enable-background:new    ;" d="M447.762,253.27v-57.872h-29.803c-5.77,0-10.449,4.678-10.449,10.449
	c0-5.771-4.679-10.449-10.449-10.449h-39.706c-5.77,0-10.449,4.678-10.449,10.449c0-5.771-4.679-10.449-10.449-10.449h-39.706
	c-5.77,0-10.449,4.678-10.449,10.449c0-5.771-4.679-10.449-10.449-10.449h-39.706c-5.771,0-10.449,4.678-10.449,10.449
	c0-5.771-4.678-10.449-10.449-10.449h-39.706c-5.771,0-10.449,4.678-10.449,10.449c0-5.771-4.678-10.449-10.449-10.449h-39.706
	c-5.77,0-10.449,4.678-10.449,10.449c0-5.771-4.679-10.449-10.449-10.449H64.238v57.872c3.119,1.087,6.465,1.685,9.95,1.685
	c16.708,0,30.302-13.592,30.302-30.302c0,16.71,13.594,30.302,30.302,30.302s30.302-13.592,30.302-30.302
	c0,16.71,13.594,30.302,30.302,30.302s30.302-13.592,30.302-30.302c0,16.71,13.594,30.302,30.302,30.302
	s30.302-13.592,30.302-30.302c0,16.71,13.594,30.302,30.302,30.302s30.302-13.592,30.302-30.302
	c0,16.71,13.594,30.302,30.302,30.302c16.708,0,30.302-13.592,30.302-30.302c0,16.71,13.594,30.302,30.302,30.302
	C441.297,254.955,444.643,254.356,447.762,253.27z"/>
<path style="fill:#EF645E;" d="M302.249,270.804h-92.498c-6.229,0-11.28,5.07-11.28,11.323v196.998h115.057V282.127
	C313.529,275.874,308.478,270.804,302.249,270.804z"/>
<rect x="219.366" y="291.704" style="fill:#FFCC60;" width="73.258" height="166.525"/>
<path style="fill:#EF645E;" d="M101.806,448.471c-5.77,0-10.449-4.678-10.449-10.449V286.31c0-5.77,4.679-10.449,10.449-10.449
	h58.657c5.77,0,10.449,4.679,10.449,10.449v151.712c0,5.771-4.679,10.449-10.449,10.449H101.806z"/>
<rect x="112.253" y="296.761" style="fill:#FFCC60;" width="37.763" height="130.811"/>
<path style="fill:#EF645E;" d="M351.537,448.471c-5.77,0-10.449-4.678-10.449-10.449V286.31c0-5.77,4.679-10.449,10.449-10.449
	h58.657c5.77,0,10.449,4.679,10.449,10.449v151.712c0,5.771-4.679,10.449-10.449,10.449H351.537z"/>
<rect x="361.984" y="296.761" style="fill:#FFCC60;" width="37.763" height="130.811"/>
<path style="fill:#EF645E;" d="M74.188,233.021c-16.708,0-30.302-13.592-30.302-30.302v-18.806c0-5.771,4.679-10.449,10.449-10.449
	h39.706c5.77,0,10.449,4.678,10.449,10.449v18.806C104.49,219.429,90.896,233.021,74.188,233.021z"/>
<path style="fill:#FFFFFF;" d="M134.792,233.021c-16.708,0-30.302-13.592-30.302-30.302v-18.806c0-5.771,4.679-10.449,10.449-10.449
	h39.706c5.771,0,10.449,4.678,10.449,10.449v18.806C165.094,219.429,151.5,233.021,134.792,233.021z"/>
<path style="fill:#EF645E;" d="M195.396,233.021c-16.708,0-30.302-13.592-30.302-30.302v-18.806c0-5.771,4.678-10.449,10.449-10.449
	h39.706c5.771,0,10.449,4.678,10.449,10.449v18.806C225.698,219.429,212.104,233.021,195.396,233.021z"/>
<path style="fill:#FFFFFF;" d="M256,233.021c-16.708,0-30.302-13.592-30.302-30.302v-18.806c0-5.771,4.678-10.449,10.449-10.449
	h39.706c5.77,0,10.449,4.678,10.449,10.449v18.806C286.302,219.429,272.708,233.021,256,233.021z"/>
<path style="fill:#EF645E;" d="M316.604,233.021c-16.708,0-30.302-13.592-30.302-30.302v-18.806c0-5.771,4.679-10.449,10.449-10.449
	h39.706c5.77,0,10.449,4.678,10.449,10.449v18.806C346.906,219.429,333.312,233.021,316.604,233.021z"/>
<path style="fill:#FFFFFF;" d="M377.208,233.021c-16.708,0-30.302-13.592-30.302-30.302v-18.806c0-5.771,4.679-10.449,10.449-10.449
	h39.706c5.77,0,10.449,4.678,10.449,10.449v18.806C407.51,219.429,393.916,233.021,377.208,233.021z"/>
<path style="fill:#EF645E;" d="M437.812,233.021c-16.708,0-30.302-13.592-30.302-30.302v-18.806c0-5.771,4.679-10.449,10.449-10.449
	h39.706c5.77,0,10.449,4.678,10.449,10.449v18.806C468.114,219.429,454.52,233.021,437.812,233.021z"/>
<path style="fill:#C14616;" d="M468.114,182.865v-46.896c0-8.298-6.768-15.022-15.115-15.022H59.001
	c-8.348,0-15.115,6.725-15.115,15.022v46.896H468.114z"/>
<path style="opacity:0.1;enable-background:new    ;" d="M452.999,120.947H59.001c-8.348,0-15.115,6.725-15.115,15.022v21.934
	c0-8.298,6.768-15.022,15.115-15.022h393.998c8.348,0,15.115,6.725,15.115,15.022v-21.934
	C468.114,127.672,461.346,120.947,452.999,120.947z"/>
<g>
	<path style="fill:#EF645E;" d="M360.336,74.993h-39.587C309.731,50.185,284.894,32.876,256,32.876s-53.731,17.31-64.75,42.119
		h-39.587c-5.286,0-9.571,4.286-9.571,9.571v61.261c0,5.288,4.286,9.573,9.571,9.573h208.673c5.286,0,9.571-4.286,9.571-9.573
		V84.566C369.909,79.28,365.622,74.993,360.336,74.993z"/>
	<rect x="198.468" y="406.664" style="fill:#EF645E;" width="115.054" height="72.464"/>
</g>
<path style="fill:#A5D289;" d="M476.527,394.212c-3.794,0-7.318,1.145-10.261,3.102c-0.991-9.38-8.895-16.69-18.503-16.69
	c-9.607,0-17.511,7.31-18.503,16.69c-2.942-1.957-6.468-3.102-10.261-3.102c-10.279,0-18.613,8.363-18.613,18.68v16.984
	c0,10.316,8.334,18.68,18.613,18.68c9.608,0,47.921,0,57.529,0c10.28,0,18.613-8.363,18.613-18.68v-16.984
	C495.138,402.575,486.806,394.212,476.527,394.212z"/>
<path style="fill:#3585B7;" d="M504.163,467.802c0,6.253-5.051,11.323-11.28,11.323h-90.242c-6.23,0-11.281-5.07-11.281-11.323
	v-33.965c0-6.253,5.051-11.32,11.281-11.32h90.242c6.229,0,11.28,5.068,11.28,11.32L504.163,467.802L504.163,467.802z"/>
<path style="fill:#A5D289;" d="M93.002,394.212c-3.794,0-7.32,1.145-10.261,3.102c-0.992-9.38-8.896-16.69-18.503-16.69
	c-9.608,0-17.512,7.31-18.503,16.69c-2.942-1.957-6.467-3.102-10.261-3.102c-10.28,0-18.613,8.363-18.613,18.68v16.984
	c0,10.316,8.333,18.68,18.613,18.68c9.607,0,47.92,0,57.529,0c10.279,0,18.613-8.363,18.613-18.68v-16.984
	C111.614,402.575,103.281,394.212,93.002,394.212z"/>
<path style="fill:#3585B7;" d="M120.639,467.802c0,6.253-5.051,11.323-11.281,11.323H19.116c-6.229,0-11.28-5.07-11.28-11.323
	v-33.965c0-6.253,5.051-11.32,11.28-11.32h90.242c6.23,0,11.281,5.068,11.281,11.32
	C120.639,433.836,120.639,467.802,120.639,467.802z"/>
<path style="opacity:0.1;enable-background:new    ;" d="M492.884,422.516h-90.242c-6.23,0-11.281,5.068-11.281,11.32v21.566
	c0-6.253,5.051-11.32,11.281-11.32h90.242c6.229,0,11.28,5.068,11.28,11.32v-21.566
	C504.163,427.584,499.112,422.516,492.884,422.516z"/>
<path style="opacity:0.1;enable-background:new    ;" d="M109.358,422.516H19.116c-6.229,0-11.28,5.068-11.28,11.32v21.566
	c0-6.253,5.051-11.32,11.28-11.32h90.242c6.23,0,11.281,5.068,11.281,11.32v-21.566
	C120.639,427.584,115.588,422.516,109.358,422.516z"/>
<rect x="221.027" y="429.307" style="fill:#C14616;" width="69.937" height="27.178"/>
<path style="fill:#F7EEDF;" d="M173.438,129.278c-2.886,0-5.224-2.338-5.224-5.224v-17.712c0-2.886,2.338-5.224,5.224-5.224h17.811
	c10.315,0,19.687-6.091,23.874-15.518C222.3,69.44,238.345,58.998,256,58.998s33.7,10.441,40.876,26.6
	c4.187,9.426,13.559,15.519,23.874,15.519h17.811c2.886,0,5.224,2.338,5.224,5.224v17.712c0,2.886-2.338,5.224-5.224,5.224
	C338.562,129.278,173.438,129.278,173.438,129.278z"/>
<path d="M275.853,373.878c2.886,0,5.224-2.339,5.224-5.224v-14.819c0-2.886-2.339-5.224-5.224-5.224
	c-2.886,0-5.224,2.339-5.224,5.224v14.819C270.629,371.539,272.967,373.878,275.853,373.878z"/>
<path d="M502.975,417.597v-4.705c0-14.621-11.865-26.516-26.449-26.516c-1.813,0-3.606,0.185-5.357,0.546
	c-3.246-6.19-8.85-10.865-15.57-12.943V236.441c12.092-6.404,20.353-19.114,20.353-33.722v-66.749
	c0-12.605-10.295-22.859-22.952-22.859h-75.255V84.566c0-9.599-7.81-17.408-17.408-17.408h-34.678
	C312.136,41.409,285.332,25.039,256,25.039s-56.136,16.37-69.658,42.119h-34.679c-9.598,0-17.408,7.81-17.408,17.408v28.545H59.001
	c-12.656,0-22.952,10.255-22.952,22.859v66.749c0,14.608,8.26,27.319,20.353,33.722v21.644c0,4.329,3.508,7.837,7.837,7.837
	s7.837-3.508,7.837-7.837v-17.289c0.7,0.039,1.404,0.062,2.113,0.062c12.341,0,23.326-5.896,30.302-15.016
	c6.976,9.12,17.961,15.016,30.302,15.016s23.326-5.896,30.302-15.016c6.976,9.12,17.961,15.016,30.302,15.016
	s23.326-5.896,30.302-15.016c6.976,9.12,17.961,15.016,30.302,15.016c12.34,0,23.326-5.896,30.302-15.016
	c6.976,9.12,17.962,15.016,30.302,15.016s23.326-5.896,30.302-15.016c6.976,9.12,17.962,15.016,30.302,15.016
	s23.326-5.896,30.302-15.016c6.976,9.12,17.962,15.016,30.302,15.016c0.709,0,1.414-0.022,2.113-0.062v133.184
	c-4.418,1.366-8.346,3.859-11.446,7.162v-94.832c0-10.082-8.203-18.286-18.286-18.286h-58.657c-10.082,0-18.286,8.204-18.286,18.286
	v151.712c0,10.082,8.204,18.286,18.286,18.286h31.987v11.494c0,1.192,0.123,2.353,0.332,3.486h-62.492v-64.623V282.127
	c0-10.564-8.575-19.159-19.116-19.159H209.75c-10.541,0-19.116,8.595-19.116,19.159v124.539v64.623h-62.492
	c0.209-1.133,0.332-2.294,0.332-3.486v-11.494h31.987c10.082,0,18.286-8.204,18.286-18.286V286.31
	c0-10.082-8.203-18.286-18.286-18.286h-58.654c-10.082,0-18.286,8.203-18.286,18.286v94.832c-3.1-3.303-7.029-5.797-11.446-7.162
	v-86.638c0-4.329-3.508-7.837-7.837-7.837s-7.837,3.508-7.837,7.837v86.638c-6.721,2.077-12.324,6.753-15.57,12.943
	c-1.751-0.363-3.544-0.546-5.357-0.546c-14.584,0-26.45,11.895-26.45,26.516v4.705C3.616,420.985,0,426.988,0,433.836v33.965
	c0,10.564,8.575,19.159,19.116,19.159h473.767c10.541,0,19.116-8.595,19.116-19.159v-33.965
	C512,426.988,508.384,420.985,502.975,417.597z M99.194,286.31c0-1.441,1.171-2.612,2.612-2.612h58.657
	c1.441,0,2.612,1.171,2.612,2.612v151.712c0,1.441-1.171,2.612-2.612,2.612h-31.987v-5.224h21.538c4.329,0,7.837-3.508,7.837-7.837
	V296.759c0-4.329-3.508-7.837-7.837-7.837h-37.759c-4.329,0-7.837,3.508-7.837,7.837v92.216c-1.653-0.796-3.404-1.419-5.224-1.859
	V286.31z M24.698,412.891c0-5.979,4.834-10.843,10.776-10.843c2.112,0,4.16,0.62,5.921,1.791c2.282,1.517,5.192,1.732,7.674,0.567
	c2.481-1.166,4.171-3.544,4.461-6.269c0.583-5.516,5.187-9.677,10.709-9.677s10.126,4.161,10.71,9.678
	c0.287,2.725,1.98,5.103,4.461,6.268c2.483,1.166,5.392,0.951,7.674-0.568c1.761-1.17,3.808-1.79,5.92-1.79
	c5.942,0,10.776,4.864,10.776,10.843v1.788H24.698V412.891z M112.802,467.802c0,1.923-1.545,3.486-3.444,3.486H19.116
	c-1.898,0-3.443-1.563-3.443-3.486v-33.965c0-1.921,1.545-3.484,3.443-3.484h90.242c1.899,0,3.444,1.563,3.444,3.484
	C112.802,433.836,112.802,467.802,112.802,467.802z M120.092,418.027V304.596h22.086v115.14h-19.921
	C121.579,419.115,120.853,418.547,120.092,418.027z M305.692,471.288h-99.383v-56.786h99.383V471.288z M305.692,398.828h-5.224
	V291.702c0-4.329-3.508-7.837-7.837-7.837H219.37c-4.329,0-7.837,3.508-7.837,7.837v59.384c0,4.329,3.508,7.837,7.837,7.837
	c4.329,0,7.837-3.508,7.837-7.837v-51.547h57.587v99.289h-57.587v-16.396c0-4.329-3.508-7.837-7.837-7.837
	c-4.329,0-7.837,3.508-7.837,7.837v16.396h-5.224V282.127c0-1.923,1.545-3.486,3.443-3.486h92.498c1.898,0,3.443,1.563,3.443,3.486
	V398.828z M96.653,202.719c0,12.387-10.078,22.465-22.465,22.465s-22.465-10.078-22.465-22.465v-12.016h44.931V202.719z
	 M157.257,202.719c0,12.387-10.078,22.465-22.465,22.465c-12.387,0-22.465-10.078-22.465-22.465v-12.016h44.931V202.719z
	 M217.861,202.719c0,12.387-10.078,22.465-22.465,22.465c-12.387,0-22.465-10.078-22.465-22.465v-12.016h44.931V202.719z
	 M278.465,202.719c0,12.387-10.078,22.465-22.465,22.465c-12.387,0-22.465-10.078-22.465-22.465v-12.016h44.931V202.719z
	 M339.069,202.719c0,12.387-10.078,22.465-22.465,22.465s-22.465-10.078-22.465-22.465v-12.016h44.931V202.719z M399.673,202.719
	c0,12.387-10.078,22.465-22.465,22.465c-12.387,0-22.465-10.078-22.465-22.465v-12.016h44.931V202.719z M51.722,175.029v-39.059
	c0-3.962,3.265-7.186,7.279-7.186h75.254v17.043c0,9.601,7.81,17.41,17.408,17.41H305.11c4.329,0,7.837-3.508,7.837-7.837
	c0-4.329-3.508-7.837-7.837-7.837H151.663c-0.956,0-1.735-0.779-1.735-1.737V84.566c0-0.956,0.778-1.735,1.735-1.735h39.587
	c3.098,0,5.904-1.824,7.163-4.655C208.521,55.418,231.126,40.712,256,40.712s47.48,14.705,57.587,37.464
	c1.258,2.831,4.065,4.655,7.162,4.655h39.587c0.956,0,1.735,0.778,1.735,1.735v61.261c0,0.957-0.778,1.737-1.735,1.737h-25.969
	c-4.329,0-7.837,3.508-7.837,7.837c0,4.329,3.508,7.837,7.837,7.837h25.969c9.599,0,17.408-7.811,17.408-17.41v-17.043h75.255
	c4.013,0,7.279,3.224,7.279,7.186v39.059H51.722z M437.812,225.184c-12.387,0-22.465-10.078-22.465-22.465v-12.016h44.931v12.016
	C460.278,215.106,450.199,225.184,437.812,225.184z M424.918,403.838c2.281,1.519,5.19,1.735,7.674,0.568
	c2.481-1.165,4.172-3.543,4.461-6.268c0.584-5.517,5.188-9.678,10.71-9.678c5.522,0,10.126,4.161,10.709,9.677
	c0.288,2.725,1.979,5.103,4.46,6.269c2.482,1.165,5.392,0.95,7.674-0.567c1.762-1.171,3.81-1.791,5.921-1.791
	c5.941,0,10.776,4.864,10.776,10.843v1.788h-79.08v-1.788c0-5.979,4.834-10.843,10.776-10.843
	C421.112,402.049,423.159,402.668,424.918,403.838z M383.525,440.634h-31.987c-1.441,0-2.612-1.171-2.612-2.612V286.31
	c0-1.441,1.171-2.612,2.612-2.612h58.657c1.441,0,2.612,1.171,2.612,2.612v100.807c-1.82,0.44-3.571,1.064-5.224,1.859v-92.216
	c0-4.329-3.508-7.837-7.837-7.837h-37.759c-4.329,0-7.837,3.508-7.837,7.837v130.814c0,4.329,3.508,7.837,7.837,7.837h21.538
	V440.634z M391.908,418.027c-0.762,0.52-1.488,1.089-2.165,1.71h-19.92V304.596h22.086v113.431H391.908z M496.327,467.802
	c0,1.923-1.544,3.486-3.443,3.486h-90.242c-1.899,0-3.444-1.563-3.444-3.486v-33.965c0-1.921,1.545-3.484,3.444-3.484h90.242
	c1.898,0,3.443,1.563,3.443,3.484L496.327,467.802L496.327,467.802z"/>
<path d="M221.031,464.318h69.937c4.329,0,7.837-3.508,7.837-7.837v-27.174c0-4.328-3.508-7.837-7.837-7.837h-69.937
	c-4.329,0-7.837,3.509-7.837,7.837v27.174C213.195,460.81,216.703,464.318,221.031,464.318z M228.868,437.145h54.264v11.5h-54.264
	V437.145z"/>
<path d="M351.623,124.053v-17.712c0-7.202-5.859-13.061-13.061-13.061H320.75c-7.221,0-13.781-4.264-16.711-10.863
	C295.607,63.429,276.751,51.161,256,51.161c-20.751,0-39.606,12.269-48.039,31.257c-2.931,6.597-9.49,10.862-16.711,10.862h-17.811
	c-7.202,0-13.061,5.859-13.061,13.061v17.712c0,7.201,5.859,13.061,13.061,13.061h165.122
	C345.763,137.115,351.623,131.255,351.623,124.053z M335.949,121.441H176.051v-12.488h15.199c13.41,0,25.593-7.918,31.036-20.174
	c5.92-13.331,19.154-21.945,33.715-21.945c14.561,0,27.794,8.613,33.715,21.944c5.443,12.256,17.625,20.175,31.036,20.175h15.199
	L335.949,121.441L335.949,121.441z"/>
<g>
</g>
<g>
</g>
<g>
</g>
<g>
</g>
<g>
</g>
<g>
</g>
<g>
</g>
<g>
</g>
<g>
</g>
<g>
</g>
<g>
</g>
<g>
</g>
<g>
</g>
<g>
</g>
<g>
</g>
</svg>
